<?xml version="1.0" encoding="iso-8859-1"?>
<!-- Uploaded to: SVG Repo, www.svgrepo.com, Generator: SVG Repo Mixer Tools -->
<svg height="800px" width="800px" version="1.1" id="Layer_1" xmlns="http://www.w3.org/2000/svg" xmlns:xlink="http://www.w3.org/1999/xlink" 
	 viewBox="0 0 512 512" xml:space="preserve">
<circle style="fill:#EFC84A;" cx="256" cy="256" r="256"/>
<path style="opacity:0.1;enable-background:new    ;" d="M206,109.339v29.44h9.333v92.48L114.96,366.725
	c-7.515,8.277-6.965,19.451-1.323,27.141l0,0c1.301,1.776,2.864,3.36,4.683,4.683l112.181,112.181
	C238.891,511.557,247.392,512,256,512c122.976,0,225.653-86.725,250.32-202.341L306,109.339H206z"/>
<path style="fill:#EBF0F3;" d="M397.029,366.72L296.64,231.243v-92.448h-81.285v92.448L114.971,366.72
	c-12.624,13.856-2.677,35.947,16.192,35.947h249.675C399.701,402.667,409.653,380.576,397.029,366.72z"/>
<polygon style="fill:#E1E6E9;" points="305.984,138.795 305.984,109.333 206.016,109.333 206.016,138.795 215.355,138.795 
	296.64,138.795 "/>
<g>
	<path style="fill:#E56353;" d="M390.688,372.363l-0.288-0.315l-44.027-59.419H165.627L121.6,372.048l-0.288,0.315
		c-3.611,3.957-4.459,9.232-2.261,14.096c2.192,4.869,6.715,7.776,12.112,7.776h249.675c5.392,0,9.92-2.907,12.112-7.776
		C395.141,381.595,394.299,376.32,390.688,372.363z"/>
	<ellipse style="fill:#E56353;" cx="221.899" cy="286.661" rx="5.483" ry="5.419"/>
	<ellipse style="fill:#E56353;" cx="247.733" cy="224.32" rx="4.763" ry="4.709"/>
	<ellipse style="fill:#E56353;" cx="272.107" cy="170.827" rx="3.755" ry="3.707"/>
	<ellipse style="fill:#E56353;" cx="301.333" cy="280.709" rx="4.661" ry="4.608"/>
</g>
</svg>